<?xml version="1.0" encoding="UTF-8"?>
<svg version="1.1" xmlns="http://www.w3.org/2000/svg" width="272" height="36">
<path d="M0 0 C4.16838712 1.28841056 5.3937792 2.22030489 7.4375 6.0625 C8.04034975 8.8776946 8.09565801 11.25398092 7.4375 14.0625 C5.16041687 17.12029735 3.47031592 18.64937363 -0.0625 20.0625 C-3.3807753 20.0625 -4.94126644 19.04613621 -7.5625 17.0625 C-9.5625 14.0625 -9.5625 14.0625 -9.5625 11.0625 C-19.1325 11.0625 -28.7025 11.0625 -38.5625 11.0625 C-38.5625 10.4025 -38.5625 9.7425 -38.5625 9.0625 C-28.9925 9.0625 -19.4225 9.0625 -9.5625 9.0625 C-9.2325 7.4125 -8.9025 5.7625 -8.5625 4.0625 C-5.68912165 0.85107714 -4.34599107 0.07624546 0 0 Z " fill="#375AA7" transform="translate(262.5625,11.9375)"/>
<path d="M0 0 C4 4 4 4 4 8 C13.57 8 23.14 8 33 8 C33 8.66 33 9.32 33 10 C23.43 10 13.86 10 4 10 C3.67 11.65 3.34 13.3 3 15 C1.40699374 17.23020876 0.25462558 17.90365519 -2.3125 18.875 C-5.92756814 19.0431427 -7.95263032 17.86997685 -11 16 C-12.21977329 13.56045342 -12.20153813 11.84694151 -12.25 9.125 C-12.27578125 8.26132812 -12.3015625 7.39765625 -12.328125 6.5078125 C-11.93322688 3.48966259 -11.09329196 2.1813276 -9 0 C-5.39297148 -1.20234284 -3.64185324 -1.0405295 0 0 Z " fill="#375AA7" transform="translate(16,13)"/>
<path d="M0 0 C2.875 1.625 2.875 1.625 5 4 C5.8125 7.25 5.8125 7.25 6 10 C3.125 10.1875 3.125 10.1875 0 10 C-0.66 9.01 -1.32 8.02 -2 7 C-2.99 7 -3.98 7 -5 7 C-6.26237731 9.52475462 -6.09856404 11.31200466 -6.0625 14.125 C-6.04896484 15.49011719 -6.04896484 15.49011719 -6.03515625 16.8828125 C-6.02355469 17.58148437 -6.01195313 18.28015625 -6 19 C-4.05925139 18.72382467 -4.05925139 18.72382467 -2 18 C-1.34 17.01 -0.68 16.02 0 15 C3.125 14.8125 3.125 14.8125 6 15 C5.70099803 18.28902165 5.27533915 20.56404634 3.5 23.375 C0.28998868 25.46150736 -2.01834629 25.70696432 -5.8046875 25.48828125 C-8.68804088 24.846966 -10.50360986 23.62366693 -12.1875 21.1796875 C-13.98803125 16.34941617 -13.9108939 11.01933949 -13 6 C-9.2204552 0.38092215 -6.75232774 -0.57223116 0 0 Z " fill="#FFFFFF" transform="translate(116,7)"/>
<path d="M0 0 C2.375 0.9375 2.375 0.9375 4 3 C5.30017563 7.96169963 5.62854124 12.4346389 3 17 C1 19 1 19 -2.875 19.375 C-5.6725342 19.26818506 -6.96840509 19.01658733 -9.5 17.6875 C-11.94580764 13.30542797 -11.71974141 8.88978959 -11 4 C-8.28855302 -0.6636888 -5.11392495 -0.63924062 0 0 Z " fill="#FFFFFF" transform="translate(187,13)"/>
<path d="M0 0 C3.1850357 1.76015131 3.83296972 2.49890916 5 6 C5.37032807 10.99942891 5.0799137 13.97242055 2 18 C-1.13871188 19.56935594 -3.53855822 19.35201103 -7 19 C-10.07504636 16.97177793 -11.66581629 15.50246824 -12.48046875 11.83984375 C-12.74203371 7.60531907 -12.34599732 5.51375359 -9.9375 1.9375 C-6.2676953 -0.48300948 -4.32043918 -0.62842752 0 0 Z M-6 6 C-6 7.98 -6 9.96 -6 12 C-4.68 12.33 -3.36 12.66 -2 13 C-1.06576355 9.98968256 -0.95550089 9.13349732 -2 6 C-3.32 6 -4.64 6 -6 6 Z " fill="#FFFFFF" transform="translate(135,13)"/>
<path d="M0 0 C3.12655001 3.86856533 3.33511998 6.94104055 3.1875 11.8125 C3.16042969 12.97394531 3.13335937 14.13539062 3.10546875 15.33203125 C3.07066406 16.21246094 3.03585938 17.09289062 3 18 C1.34385343 18.38218767 -0.32457024 18.71395102 -2 19 C-3.81115956 17.18884044 -3.38199448 14.38721773 -3.5625 11.9375 C-3.64628906 10.83277344 -3.73007813 9.72804688 -3.81640625 8.58984375 C-3.87699219 7.73519531 -3.93757812 6.88054688 -4 6 C-4.99 6.495 -4.99 6.495 -6 7 C-6.4683265 9.58605332 -6.4683265 9.58605332 -6.625 12.5625 C-6.73714844 14.08037109 -6.73714844 14.08037109 -6.8515625 15.62890625 C-6.90054688 16.41136719 -6.94953125 17.19382812 -7 18 C-8.65614657 18.38218767 -10.32457024 18.71395102 -12 19 C-13 18 -13 18 -13.09765625 14.18359375 C-13.09098089 12.60153318 -13.07901875 11.01948841 -13.0625 9.4375 C-13.05798828 8.63119141 -13.05347656 7.82488281 -13.04882812 6.99414062 C-13.03700518 4.99606244 -13.01906914 2.99802217 -13 1 C-4.33591418 -0.49085821 -4.33591418 -0.49085821 0 0 Z " fill="#FFFFFF" transform="translate(154,13)"/>
<path d="M0 0 C4.95 0 9.9 0 15 0 C15 1.65 15 3.3 15 5 C11.7 5 8.4 5 5 5 C5 5.99 5 6.98 5 8 C6.299375 7.979375 7.59875 7.95875 8.9375 7.9375 C10.29165633 7.91600546 11.64756083 7.92851801 13 8 C14 9 14 9 14.0625 11.5625 C14.041875 12.366875 14.02125 13.17125 14 14 C11.03 14 8.06 14 5 14 C5 17.3 5 20.6 5 24 C3.35 24 1.7 24 0 24 C0 16.08 0 8.16 0 0 Z " fill="#FFFFFF" transform="translate(56,8)"/>
<path d="M0 0 C2.4375 1.1875 2.4375 1.1875 4 3 C4.25 5.6875 4.25 5.6875 4 8 C0.37471432 8.20140476 -1.86501708 7.85776765 -5 6 C-5 8.31 -5 10.62 -5 13 C-4.443125 12.67 -3.88625 12.34 -3.3125 12 C-0.69715478 10.8690399 1.1806646 10.84337026 4 11 C3.6875 13.875 3.6875 13.875 3 17 C-0.71013399 19.47342266 -2.61060262 19.38503486 -7 19 C-9.19140625 17.8515625 -9.19140625 17.8515625 -11 16 C-11.53125 13.22265625 -11.53125 13.22265625 -11.5 10.0625 C-11.5103125 9.02222656 -11.520625 7.98195313 -11.53125 6.91015625 C-10.32320545 0.29255929 -6.14595111 -0.76824389 0 0 Z " fill="#FFFFFF" transform="translate(204,13)"/>
<path d="M0 0 C0.22107787 2.7885289 0.28107535 5.34653181 0.1875 8.125 C0.17396484 8.87910156 0.16042969 9.63320313 0.14648438 10.41015625 C0.11109985 12.27374127 0.05729167 14.13695978 0 16 C-1.875 16.625 -1.875 16.625 -4 17 C-6 15 -6 15 -6.1953125 12.3984375 C-6.17210937 11.40070312 -6.14890625 10.40296875 -6.125 9.375 C-6.10695312 8.37210938 -6.08890625 7.36921875 -6.0703125 6.3359375 C-6.04710937 5.56507812 -6.02390625 4.79421875 -6 4 C-6.99 4 -7.98 4 -9 4 C-9 7.96 -9 11.92 -9 16 C-10.65 16.33 -12.3 16.66 -14 17 C-14 11.06 -14 5.12 -14 -1 C-4.38461538 -2.92307692 -4.38461538 -2.92307692 0 0 Z " fill="#FFFFFF" transform="translate(174,15)"/>
<path d="M0 0 C1.98 0 3.96 0 6 0 C6 1.65 6 3.3 6 5 C6.66 5 7.32 5 8 5 C8 6.32 8 7.64 8 9 C7.34 9 6.68 9 6 9 C6 11.97 6 14.94 6 18 C6.66 18 7.32 18 8 18 C8 19.65 8 21.3 8 23 C5.125 23.125 5.125 23.125 2 23 C0 21 0 21 -0.1953125 18.1796875 C-0.17210938 17.08914062 -0.14890625 15.99859375 -0.125 14.875 C-0.10695313 13.77929688 -0.08890625 12.68359375 -0.0703125 11.5546875 C-0.04710938 10.71164063 -0.02390625 9.86859375 0 9 C-0.66 9 -1.32 9 -2 9 C-2 7.68 -2 6.36 -2 5 C-1.34 5 -0.68 5 0 5 C0 3.35 0 1.7 0 0 Z " fill="#FFFFFF" transform="translate(83,9)"/>
<path d="M0 0 C1.65 0 3.3 0 5 0 C5 1.65 5 3.3 5 5 C5.66 5 6.32 5 7 5 C7 6.32 7 7.64 7 9 C6.34 9 5.68 9 5 9 C5 11.97 5 14.94 5 18 C5.66 18 6.32 18 7 18 C7 19.65 7 21.3 7 23 C5.00045254 23.04254356 2.99958364 23.04080783 1 23 C0 22 0 22 -0.09765625 19.05859375 C-0.08605469 17.86363281 -0.07445312 16.66867188 -0.0625 15.4375 C-0.05347656 14.23996094 -0.04445312 13.04242188 -0.03515625 11.80859375 C-0.02355469 10.88175781 -0.01195312 9.95492188 0 9 C-0.66 9 -1.32 9 -2 9 C-2 7.68 -2 6.36 -2 5 C-1.34 5 -0.68 5 0 5 C0 3.35 0 1.7 0 0 Z " fill="#FFFFFF" transform="translate(211,9)"/>
<path d="M0 0 C1.98 0 3.96 0 6 0 C6 5.61 6 11.22 6 17 C4.35 17.33 2.7 17.66 1 18 C0 17 0 17 -0.09765625 13.18359375 C-0.09098089 11.60153318 -0.07901875 10.01948841 -0.0625 8.4375 C-0.05798828 7.63119141 -0.05347656 6.82488281 -0.04882812 5.99414062 C-0.03700518 3.99606244 -0.01906914 1.99802217 0 0 Z " fill="#FFFFFF" transform="translate(74,14)"/>
<path d="M0 0 C1.98 0 3.96 0 6 0 C6 1.65 6 3.3 6 5 C4.02 5 2.04 5 0 5 C0 3.35 0 1.7 0 0 Z " fill="#FFFFFF" transform="translate(74,8)"/>
</svg>
